<svg xmlns="http://www.w3.org/2000/svg" viewBox="0 0 58.85 59.83"><defs><style>.cls-1,.cls-2,.cls-3{fill:none;stroke:#010101;stroke-linecap:round;stroke-linejoin:round;}.cls-2{stroke-dasharray:3.04 3.04;}.cls-3{stroke-width:2px;}</style></defs><g id="Layer_2" data-name="Layer 2"><g id="Text_activities"><line class="cls-1" x1="8.25" y1="29.43" x2="9.67" y2="29.43"/><line class="cls-2" x1="12.71" y1="29.43" x2="47.66" y2="29.43"/><line class="cls-1" x1="49.18" y1="29.43" x2="50.6" y2="29.43"/><line class="cls-1" x1="29.43" y1="8.74" x2="29.43" y2="10.16"/><line class="cls-2" x1="29.43" y1="13.2" x2="29.43" y2="48.15"/><line class="cls-1" x1="29.43" y1="49.67" x2="29.43" y2="51.09"/><rect class="cls-3" x="8.25" y="8.74" width="42.35" height="42.35" rx="5.61"/><line class="cls-1" x1="8.25" y1="8.35" x2="0.5" y2="8.35"/><line class="cls-1" x1="50.6" y1="8.35" x2="50.6" y2="0.5"/><line class="cls-1" x1="8.25" y1="8.35" x2="8.25" y2="0.5"/><line class="cls-1" x1="50.6" y1="8.35" x2="58.35" y2="8.35"/><line class="cls-1" x1="50.6" y1="51.48" x2="58.35" y2="51.48"/><line class="cls-1" x1="8.25" y1="51.48" x2="8.25" y2="59.33"/><line class="cls-1" x1="50.6" y1="51.48" x2="50.6" y2="59.33"/><line class="cls-1" x1="8.25" y1="51.48" x2="0.5" y2="51.48"/></g></g></svg>