<svg xmlns="http://www.w3.org/2000/svg" viewBox="0 0 58.85 61.65"><defs><style>.cls-1,.cls-2{fill:none;stroke:#1d1d1b;stroke-miterlimit:10;}.cls-2{stroke-width:2px;}.cls-3{fill:#1d1d1b;}</style></defs><g id="Layer_2" data-name="Layer 2"><g id="Text_activities"><path class="cls-1" d="M46.35,26.08c-.19,16.36,2,11.69-11.42,19.93-2.43,1.48-5,2.71-7.35,4.33-2.78,1.94-5.24,1.92-8.13.11-5.09-3.21-10.33-6.17-15.58-9.12A6.06,6.06,0,0,1,.5,35.46Q.59,26.1.5,16.74a5.83,5.83,0,0,1,3.16-5.65C9.18,8,14.68,4.8,20.11,1.52a6,6,0,0,1,6.76.05C32.32,4.81,38,7.78,43.23,11.28a8.46,8.46,0,0,1,3,5.3C46.71,19.67,46.35,22.91,46.35,26.08ZM10.23,14.83c4.16,2.4,7.71,4.54,11.36,6.51a3.83,3.83,0,0,0,3,.37c3.91-2.06,7.7-4.37,12.05-6.89-4.39-2.59-8.29-4.93-12.26-7.15a2.59,2.59,0,0,0-2.12.12C18.38,10,14.56,12.28,10.23,14.83ZM6.94,20.47c0,5.05,0,9.5,0,14a2.24,2.24,0,0,0,.77,1.66c4,2.36,8,4.63,12.51,7.18,0-5,0-9.26-.05-13.51a3,3,0,0,0-.93-2.22C15.38,25.18,11.39,23,6.94,20.47ZM26.66,43.23c4.49-2.54,8.3-4.66,12.05-6.87a2.55,2.55,0,0,0,1.2-1.72c.1-4.53.05-9,.05-14.17C35.51,23,31.61,25.14,27.79,27.4a2.51,2.51,0,0,0-1.08,1.82C26.61,33.67,26.66,38.12,26.66,43.23Z"/><line class="cls-2" x1="37.43" y1="60.79" x2="29.61" y2="56.21"/><path class="cls-3" d="M31.67,53.06A3.76,3.76,0,1,0,33,58.21,3.77,3.77,0,0,0,31.67,53.06Z"/><polyline class="cls-2" points="49.05 44.86 56.87 49.44 37.43 60.79"/><path class="cls-3" d="M47.32,48.2a3.76,3.76,0,1,1,5.14-1.34A3.75,3.75,0,0,1,47.32,48.2Z"/></g></g></svg>