<svg xmlns="http://www.w3.org/2000/svg" viewBox="0 0 53.8 61.03"><defs><style>.cls-1{fill:none;stroke:#010101;stroke-miterlimit:10;stroke-width:2px;}</style></defs><g id="Layer_2" data-name="Layer 2"><g id="Sq"><path class="cls-1" d="M26.9,11.82c-7.66,0-15.06,5.95-15.06,14.37a18.47,18.47,0,0,0,4,11.5c2,2.8,3.8,5,3.8,8.48V53.4a3,3,0,0,0,3,3h1.21V57a3,3,0,1,0,6,0v-.6h1.21a3,3,0,0,0,3-3V46.17c0-3.45,1.83-5.68,3.81-8.48a18.52,18.52,0,0,0,4-11.5c0-8.42-7.4-14.37-15.06-14.37Zm7.23,39.05H19.67m14.46-4.7H19.67m4.22,10.24h6"/><line class="cls-1" x1="7.92" y1="28.51" y2="28.51"/><line class="cls-1" x1="12.9" y1="14.51" x2="7.32" y2="8.92"/><line class="cls-1" x1="26.9" y1="7.92" x2="26.9"/><line class="cls-1" x1="40.9" y1="14.51" x2="46.48" y2="8.92"/><line class="cls-1" x1="45.89" y1="28.51" x2="53.8" y2="28.51"/></g></g></svg>