<svg xmlns="http://www.w3.org/2000/svg" viewBox="0 0 60.02 60.09"><defs><style>.cls-1,.cls-2{fill:none;stroke:#1d1d1b;stroke-miterlimit:10;}.cls-2{stroke-width:2px;}</style></defs><g id="Layer_2" data-name="Layer 2"><g id="Text_activities"><path class="cls-1" d="M52.47,30.2c-.19,16.06,2,11.48-11.21,19.56C38.88,51.22,36.33,52.43,34,54c-2.73,1.9-5.15,1.88-8,.1-5-3.14-10.14-6.06-15.29-8.95a5.93,5.93,0,0,1-3.31-5.76q.09-9.19,0-18.38a5.71,5.71,0,0,1,3.1-5.55C16,12.42,21.38,9.3,26.71,6.08a5.88,5.88,0,0,1,6.63.06c5.36,3.18,10.89,6.09,16.07,9.53a8.32,8.32,0,0,1,2.94,5.2C52.83,23.91,52.47,27.08,52.47,30.2ZM17,19.15c4.08,2.36,7.57,4.46,11.16,6.39a3.7,3.7,0,0,0,2.92.37c3.85-2,7.57-4.29,11.84-6.77-4.31-2.54-8.14-4.84-12-7a2.5,2.5,0,0,0-2.08.13C25,14.39,21.26,16.65,17,19.15Zm-3.23,5.54c0,5,0,9.33,0,13.7A2.17,2.17,0,0,0,14.56,40c3.92,2.33,7.89,4.55,12.28,7.06,0-4.91.05-9.09,0-13.27a2.88,2.88,0,0,0-.92-2.17C22.06,29.32,18.15,27.17,13.78,24.69ZM33.14,47c4.41-2.5,8.15-4.58,11.83-6.75a2.56,2.56,0,0,0,1.18-1.69c.09-4.44.05-8.89.05-13.91-4.37,2.47-8.2,4.58-12,6.8a2.5,2.5,0,0,0-1.05,1.79C33.09,37.65,33.14,42,33.14,47Z"/><path class="cls-2" d="M1.13,15.3c0-3.49-.17-7,.07-10.53A3.87,3.87,0,0,1,5.06,1.1c3.33-.19,6.68-.05,10.17-.05"/><path class="cls-2" d="M15.23,59c-3.51,0-7,.22-10.36-.08C2.33,58.71,1.09,56.77,1,54.26,1,51.19,1,48.11,1,44.8"/><path class="cls-2" d="M44.68,1.19c3.63,0,7.3-.35,10.84.18,1.28.19,3,2.33,3.23,3.78.49,3.28.15,6.68.15,10.2"/><path class="cls-2" d="M58.91,44.72c0,3.51.15,6.88,0,10.22A4.1,4.1,0,0,1,54.7,59c-3.25.16-6.52,0-10,0"/><path class="cls-1" d="M17,19.15c4.25-2.5,8-4.76,11.8-6.9a2.5,2.5,0,0,1,2.08-.13c3.9,2.18,7.73,4.48,12,7-4.27,2.48-8,4.75-11.84,6.77a3.7,3.7,0,0,1-2.92-.37C24.58,23.61,21.09,21.51,17,19.15Z"/><path class="cls-1" d="M13.78,24.69c4.37,2.48,8.28,4.63,12.1,6.94a2.88,2.88,0,0,1,.92,2.17c.09,4.18,0,8.36,0,13.27-4.39-2.51-8.36-4.73-12.28-7.06a2.17,2.17,0,0,1-.75-1.62C13.75,34,13.78,29.65,13.78,24.69Z"/><path class="cls-1" d="M33.14,47c0-5,0-9.39,0-13.76a2.5,2.5,0,0,1,1.05-1.79c3.76-2.22,7.59-4.33,12-6.8,0,5,0,9.47-.05,13.91A2.56,2.56,0,0,1,45,40.29C41.29,42.46,37.55,44.54,33.14,47Z"/></g></g></svg>