<svg xmlns="http://www.w3.org/2000/svg" viewBox="0 0 32.25 23.65"><g id="Layer_2" data-name="Layer 2"><g id="Light"><path d="M24.18,17.49H7.44A2.48,2.48,0,0,1,5,15V4.56A2.48,2.48,0,0,1,7.44,2.09H11L12.71.42a1.42,1.42,0,0,1,1-.42H17.9a1.42,1.42,0,0,1,1,.42l1.67,1.67h3.6a2.46,2.46,0,0,1,2.46,2.47V15a2.48,2.48,0,0,1-2.46,2.47ZM7.44,2.84A1.72,1.72,0,0,0,5.73,4.56V15a1.72,1.72,0,0,0,.5,1.21,1.67,1.67,0,0,0,1.21.51H24.18A1.72,1.72,0,0,0,25.89,15V4.56a1.72,1.72,0,0,0-1.71-1.72H20.27L18.38,1a.67.67,0,0,0-.48-.2H13.72a.67.67,0,0,0-.48.2L11.35,2.84Z"/><path d="M24.43,15.27H7.19v-11h4.44a.79.79,0,0,0,.56-.23l1.86-1.86h3.52l1.86,1.86a.83.83,0,0,0,.56.23h4.44Zm-16.74-.5H23.93v-10H20a1.3,1.3,0,0,1-.91-.38L17.37,2.72H14.25L12.54,4.43a1.3,1.3,0,0,1-.91.38H7.69Z"/><path d="M15.81,14.22a4.46,4.46,0,0,1-3.14-1.3,4.45,4.45,0,0,1,0-6.27,4.43,4.43,0,0,1,6.27,0,4.44,4.44,0,0,1-3.13,7.57Zm0-8.37A3.94,3.94,0,1,0,18.59,7,3.92,3.92,0,0,0,15.81,5.85Z"/><path d="M15.81,12.13a2.31,2.31,0,0,1-1.66-.69,2.35,2.35,0,0,1,0-3.31,2.42,2.42,0,0,1,3.32,0,2.35,2.35,0,0,1,0,3.31A2.31,2.31,0,0,1,15.81,12.13Zm0-4.18a1.84,1.84,0,0,0-1.3,3.14,1.87,1.87,0,0,0,2.6,0A1.84,1.84,0,0,0,15.81,8Z"/><path d="M15,22.5h0C6.42,22.23,0,19.08,0,15.18c0-1.48.91-2.89,2.63-4.07a.63.63,0,0,1,.87.15.63.63,0,0,1-.16.87c-.95.66-2.09,1.73-2.09,3C1.25,18.29,7.41,21,15,21.25a.62.62,0,0,1,.6.65A.61.61,0,0,1,15,22.5Z"/><path d="M18.72,22.43a.63.63,0,0,1,0-1.25c7-.51,12.32-3.09,12.32-6,0-1.33-1.14-2.39-2.09-3a.63.63,0,1,1,.71-1c1.72,1.19,2.63,2.6,2.63,4.08,0,3.69-5.54,6.67-13.48,7.25Z"/><path d="M12.84,23.65a.62.62,0,0,1-.26-1.19l1.76-.82-1.71-.93a.63.63,0,0,1,.6-1.1L16,21.14a.61.61,0,0,1,.33.57.63.63,0,0,1-.36.54l-2.9,1.34A.58.58,0,0,1,12.84,23.65Z"/></g></g></svg>