<svg xmlns="http://www.w3.org/2000/svg" viewBox="0 0 62.55 42.53"><defs><style>.cls-1{fill:none;stroke:#010101;stroke-miterlimit:10;stroke-width:2px;}</style></defs><g id="Layer_2" data-name="Layer 2"><g id="Text_activities"><path class="cls-1" d="M31.27,1C25.79,1,14.79,3.06,2.65,16.87a6.71,6.71,0,0,0,0,8.81c12.14,13.8,23.14,15.85,28.62,15.85s16.5-2.06,28.63-15.87a6.71,6.71,0,0,0,0-8.81C47.77,3.05,36.76,1,31.27,1Z"/><path class="cls-1" d="M56,22.22C52.24,26.46,42.39,36.3,31.27,36.3s-21-9.85-24.69-14.08a1.47,1.47,0,0,1,0-1.91C10.3,16.07,20.16,6.23,31.27,6.23s21,9.84,24.7,14.08A1.45,1.45,0,0,1,56,22.22Z"/><path class="cls-1" d="M31.27,7.93a13.37,13.37,0,1,0,9.44,3.9A13.34,13.34,0,0,0,31.27,7.93Z"/><path class="cls-1" d="M31.27,29.37A8.13,8.13,0,1,1,37,27,8.11,8.11,0,0,1,31.27,29.37Z"/></g></g></svg>