# Rhino

mtllib Cube.mtl
usemtl diffuse_0
v 5000 0 5000
v 5000 10000 5000
v -5000 0 5000
v -5000 10000 5000
v 5000 0 -5000
v 5000 10000 -5000
v 5000 0 5000
v 5000 10000 5000
v -5000 0 -5000
v -5000 10000 -5000
v 5000 0 -5000
v 5000 10000 -5000
v -5000 0 5000
v -5000 10000 5000
v -5000 0 -5000
v -5000 10000 -5000
v -5000 0 5000
v 5000 0 5000
v 5000 0 -5000
v -5000 0 -5000
v -5000 10000 5000
v 5000 10000 5000
v 5000 10000 -5000
v -5000 10000 -5000
vt 0.66740930080413818 0.33774834871292114
vt 0.33774834871292114 0.33774834871292114
vt 0.66740930080413818 0.66887414455413818
vt 0.33774834871292114 0.66887414455413818
vt 0.66740930080413818 0
vt 0.33774834871292114 0
vt 0.66740930080413818 0.33112582564353943
vt 0.33774834871292114 0.33112582564353943
vt 0.99853515625 0.33774834871292114
vt 0.66887414455413818 0.33774834871292114
vt 0.99853515625 0.66887414455413818
vt 0.66887414455413818 0.66887414455413818
vt 0.99853515625 0
vt 0.66887414455413818 0
vt 0.99853515625 0.33112582564353943
vt 0.66887414455413818 0.33112582564353943
vt 0.33298659324645996 0.34104523062705994
vt 0.33298659324645996 0.6707349419593811
vt 0.0032969068270176649 0.6707349419593811
vt 0.0032969068270176649 0.34104523062705994
vt 0.33298659324645996 0.0032968972809612751
vt 0.33298659324645996 0.33298659324645996
vt 0.0032969068270176649 0.33298659324645996
vt 0.0032969068270176649 0.0032968972809612751
vn 0 0 1
vn 0 0 1
vn 0 0 1
vn 0 0 1
vn 1 0 0
vn 1 0 0
vn 1 0 0
vn 1 0 0
vn 0 0 -1
vn 0 0 -1
vn 0 0 -1
vn 0 0 -1
vn -1 0 0
vn -1 0 0
vn -1 0 0
vn -1 0 0
vn 0 -1 0
vn 0 -1 0
vn 0 -1 0
vn 0 -1 0
vn 0 1 0
vn 0 1 0
vn 0 1 0
vn 0 1 0
f 2/2/2 4/4/4 3/3/3 1/1/1
f 6/6/6 8/8/8 7/7/7 5/5/5
f 10/10/10 12/12/12 11/11/11 9/9/9
f 14/14/14 16/16/16 15/15/15 13/13/13
f 20/20/20 19/19/19 18/18/18 17/17/17
f 24/24/24 21/21/21 22/22/22 23/23/23
